<svg xmlns="http://www.w3.org/2000/svg" version="1.1" xmlns:xlink="http://www.w3.org/1999/xlink" xmlns:svgjs="http://svgjs.com/svgjs" width="1000" height="560" preserveAspectRatio="none" viewBox="0 0 1000 560"><g mask="url(&quot;#SvgjsMask1015&quot;)" fill="none"><rect width="1000" height="560" x="0" y="0" fill="rgba(0, 129, 255, 1)"></rect><path d="M0,283.232C56.551,277.827,116.319,286.044,164.813,256.454C213.771,226.581,232.089,167.869,265.482,121.241C308.194,61.6,384.952,17.419,388.474,-55.854C392.015,-129.525,333.214,-191.192,283.102,-245.309C234.207,-298.112,176.671,-347.461,105.978,-360.927C37.85,-373.905,-27.529,-339.642,-93.07,-316.967C-155.473,-295.378,-218.228,-275.766,-267.44,-231.738C-321.233,-183.612,-387.707,-127.558,-385.417,-55.415C-383.092,17.841,-292.96,53.574,-256.369,117.08C-224.68,172.078,-239.651,255.5,-186.385,290.021C-133.135,324.532,-63.167,289.269,0,283.232" fill="#0067cc"></path><path d="M1000 889.769C1061.158 886.65 1119.968 857.394 1163.345 814.169 1202.727 774.925 1200.407 712.499 1226.9279999999999 663.635 1256.258 609.595 1322.092 574.32 1326.797 513.014 1331.661 449.635 1297.633 385.824 1251.613 341.976 1207.182 299.642 1141.722 295.012 1082.221 279.981 1025.084 265.547 968.116 242.599 910.694 255.85199999999998 851.684 269.471 803.922 310.057 762.105 353.863 718.653 399.382 678.543 450.302 666.173 512.003 653.451 575.456 663.733 642.465 692.634 700.369 720.995 757.192 771.518 798.079 825.585 831.395 878.858 864.222 937.506 892.956 1000 889.769" fill="#339aff"></path></g><defs><mask id="SvgjsMask1015"><rect width="1000" height="560" fill="#ffffff"></rect></mask></defs></svg>